# xmcd
#
# Track frame offsets:
# 150
# 13412
# 23884
# 35869
# 44956
# 55374
# 66117
# 77837
# 90995
# 102604
# 112044
#
# Disc length: 1650 seconds
#
#
# Revision: 0
# Processed by: cddbd v1.5.2PL0 Copyright (c) Steve Scherf et al.
# Submitted via: FreeRIP 2.945 
#
DISCID=a006700b
DTITLE=Bill Anderson - If It's All The Same To You
DYEAR=1900
DGENRE=Country
TTITLE0=If It's All The Same To You
TTITLE1=Put A Little Love In Your Heart
TTITLE2=Untouchables
TTITLE3=Together We're One
TTITLE4=Truer Love You'll Never Find
TTITLE5=Who Is The Biggest Fool
TTITLE6=Tell It Like It Was
TTITLE7=Since I Met You Baby
TTITLE8=I Know You're Married
TTITLE9=I'm Leaving It Up To You
TTITLE10=Time Out
EXTD=
EXTT0=
EXTT1=
EXTT2=
EXTT3=
EXTT4=
EXTT5=
EXTT6=
EXTT7=
EXTT8=
EXTT9=
EXTT10=
PLAYORDER=
